<svg width="190" height="216" viewBox="0 0 190 216" fill="none" xmlns="http://www.w3.org/2000/svg">
<ellipse cx="88.5" cy="118" rx="66.5" ry="19.5" fill="#E2F8FF"/>
<path d="M57 69.5L26.5 89.5L24.5 91.5L23.5 90.5L24 88V86V84.5L23.5 83.5L22.5 82.5L21 82L19.5 81.5L17 81L16.5 79L20 77.5L104.5 28.5L143.5 66.5L142.5 68L141.5 69.5L140.5 71.5L139.5 73L138 75L137 76.5L135 79L133 81L130.5 83L128 84.5L125 86.5L122 88.5L120 89.5L118 90.5L115 91.5L112 92.5H110H108L106 93.5H94L89 92.5L85 91.5L83 90.5L80 89.5L76 87.5L74 86.5L71 84.5L68 82.5L66 80.5L65 79.5L64 78.5L62 76.5L60 74.5L58 71.5L57 69.5Z" fill="#FACC15" stroke="black"/>
<path d="M154 84.5L153 85L151 84.5L148 83L145 81L141.5 78.5L138 75.5L143.5 67L104.5 28.5L96 33L94.5 31.5L93 30L91 28L89.5 26.5L89 25.5L88 24L87.5 23V21.5L88 20L90.5 17.5L94.5 14L98 11.5L101 10L105.5 8.5L109 7.5L112 7L115 6.5H118H120.5H123.5L127 7L129.5 7.5L132.5 8.5H134L136 8L138 7L139.5 6L140.5 5L142 3.5L143 2.5L143.5 2L172 30L170.5 31.5L169 33L167.5 34.5L166.5 36L165.5 37V39.5L166.5 42.5L167 44.5L167.5 46.5L168.5 52V54.5V57.5L168 60.5L167.5 63L166.5 66L165.5 68L164 71L162.5 74L161 76.5L159.5 78.5L158 80.5L156 82.5L154 84.5Z" fill="#D2D1D1"/>
<path d="M143.5 67L145.5 69L147.5 71L149 73L151 75.5L152 77L153 78.5L154 81V83V84.5M143.5 67L104.5 28.5M143.5 67L138 75.5L141.5 78.5L145 81L148 83L151 84.5L153 85L154 84.5M154 84.5L156 82.5L158 80.5L159.5 78.5L161 76.5L162.5 74L164 71L165.5 68L166.5 66L167.5 63L168 60.5L168.5 57.5V54.5V52L167.5 46.5L167 44.5L166.5 42.5L165.5 39.5V37M104.5 28.5L103 27L102 26L101 25L99.5 24L98 23L96.5 22L94.5 21L92 20L90 19.5H89L88 20M104.5 28.5L96 33L94.5 31.5L93 30L91 28L89.5 26.5L89 25.5L88 24L87.5 23V21.5L88 20M88 20L90.5 17.5L94.5 14L98 11.5L101 10L105.5 8.5L109 7.5L112 7L115 6.5H118H120.5H123.5L127 7L129.5 7.5L132.5 8.5H134L136 8L138 7L139.5 6L140.5 5L142 3.5L143 2.5L143.5 2L172 30L170.5 31.5L169 33L167.5 34.5L166.5 36L165.5 37M165.5 37L146.5 18" stroke="black"/>
<path d="M106.5 45.5L68 73L70 74L71.5 74.5L74 75H76H78.5H80.5H85H89H92.5L96.5 74.5L99.5 74L102.5 73.5L105 73L107.5 72L110.5 71L112.5 70L115 69L117.5 67.5L119 66.5L120.5 65L122 63.5L122.5 61V59V57L122 54.5L121.5 52.5L120.5 50.5L119 48.5L117.5 47L115.5 46L112.5 45.5H110.5H108.5H106.5Z" fill="#FF0000"/>
<path d="M92.5 75L96.5 74.5L99.5 74L102.5 73.5L105 73L107.5 72L110.5 71L112.5 70L115 69L117.5 67.5L119 66.5L120.5 65L122 63.5L122.5 61V59V57L122 54.5L121.5 52.5L120.5 50.5L119 48.5L117.5 47L115.5 46L112.5 45.5H110.5H108.5H106.5L68 73L70 74L71.5 74.5L74 75H76M92.5 75H89H85H80.5H78.5H76M92.5 75L96.5 73L99.5 71L102.5 69L105 66.5L107.5 64.5L109.5 62L112 59.5L113.5 57M76 75L79.5 73.5L83 72L87 70L91 67.5L95 65L98 62.5L101 59.5L103 57L104.5 55" stroke="black"/>
<path d="M77.5 88.5L56 100L50.5 115.5M50.5 115.5L47 125M50.5 115.5L54 123H56M50.5 115.5L57.5 118.5H59.5M50.5 115.5L45.5 111.5V110" stroke="black"/>
<path d="M97 94L104.5 112.5L121.5 111M121.5 111H130.5M121.5 111L126 104M121.5 111L119.5 101M121.5 111L118.5 118" stroke="black"/>
<path d="M10.642 179.5V144.591H19.0795V159.352H19.5398L31.0795 144.591H41.017L28.642 160.17L41.2386 179.5H31.1477L22.4545 165.778L19.0795 170.04V179.5H10.642ZM44.3452 179.5V144.591H52.7827V158.602H66.5384V144.591H74.9588V179.5H66.5384V165.472H52.7827V179.5H44.3452ZM113.2 162.045C113.2 165.886 112.462 169.142 110.984 171.812C109.507 174.483 107.507 176.511 104.984 177.898C102.473 179.284 99.6548 179.977 96.5298 179.977C93.3935 179.977 90.5696 179.278 88.0582 177.881C85.5469 176.483 83.5526 174.455 82.0753 171.795C80.6094 169.125 79.8764 165.875 79.8764 162.045C79.8764 158.205 80.6094 154.949 82.0753 152.278C83.5526 149.608 85.5469 147.58 88.0582 146.193C90.5696 144.807 93.3935 144.114 96.5298 144.114C99.6548 144.114 102.473 144.807 104.984 146.193C107.507 147.58 109.507 149.608 110.984 152.278C112.462 154.949 113.2 158.205 113.2 162.045ZM104.575 162.045C104.575 159.773 104.251 157.852 103.604 156.284C102.967 154.716 102.047 153.528 100.842 152.722C99.6491 151.915 98.2116 151.511 96.5298 151.511C94.8594 151.511 93.4219 151.915 92.2173 152.722C91.0128 153.528 90.0866 154.716 89.4389 156.284C88.8026 157.852 88.4844 159.773 88.4844 162.045C88.4844 164.318 88.8026 166.239 89.4389 167.807C90.0866 169.375 91.0128 170.562 92.2173 171.369C93.4219 172.176 94.8594 172.58 96.5298 172.58C98.2116 172.58 99.6491 172.176 100.842 171.369C102.047 170.562 102.967 169.375 103.604 167.807C104.251 166.239 104.575 164.318 104.575 162.045ZM132.308 144.591H140.626V168.727C140.615 170.989 140.075 172.966 139.007 174.659C137.939 176.341 136.462 177.648 134.575 178.58C132.7 179.511 130.53 179.977 128.064 179.977C125.882 179.977 123.899 179.597 122.115 178.835C120.342 178.074 118.928 176.892 117.871 175.29C116.825 173.687 116.308 171.636 116.32 169.136H124.723C124.757 170.034 124.928 170.801 125.234 171.438C125.553 172.062 125.99 172.534 126.547 172.852C127.104 173.17 127.768 173.33 128.541 173.33C129.348 173.33 130.03 173.159 130.587 172.818C131.143 172.466 131.564 171.949 131.848 171.267C132.143 170.585 132.297 169.739 132.308 168.727V144.591ZM178.872 162.045C178.872 165.886 178.134 169.142 176.656 171.812C175.179 174.483 173.179 176.511 170.656 177.898C168.145 179.284 165.327 179.977 162.202 179.977C159.065 179.977 156.241 179.278 153.73 177.881C151.219 176.483 149.224 174.455 147.747 171.795C146.281 169.125 145.548 165.875 145.548 162.045C145.548 158.205 146.281 154.949 147.747 152.278C149.224 149.608 151.219 147.58 153.73 146.193C156.241 144.807 159.065 144.114 162.202 144.114C165.327 144.114 168.145 144.807 170.656 146.193C173.179 147.58 175.179 149.608 176.656 152.278C178.134 154.949 178.872 158.205 178.872 162.045ZM170.247 162.045C170.247 159.773 169.923 157.852 169.276 156.284C168.639 154.716 167.719 153.528 166.514 152.722C165.321 151.915 163.884 151.511 162.202 151.511C160.531 151.511 159.094 151.915 157.889 152.722C156.685 153.528 155.759 154.716 155.111 156.284C154.474 157.852 154.156 159.773 154.156 162.045C154.156 164.318 154.474 166.239 155.111 167.807C155.759 169.375 156.685 170.562 157.889 171.369C159.094 172.176 160.531 172.58 162.202 172.58C163.884 172.58 165.321 172.176 166.514 171.369C167.719 170.562 168.639 169.375 169.276 167.807C169.923 166.239 170.247 164.318 170.247 162.045Z" fill="white"/>
<path d="M10.642 179.5H9.64205V180.5H10.642V179.5ZM10.642 144.591V143.591H9.64205V144.591H10.642ZM19.0795 144.591H20.0795V143.591H19.0795V144.591ZM19.0795 159.352H18.0795V160.352H19.0795V159.352ZM19.5398 159.352V160.352H20.0273L20.3276 159.968L19.5398 159.352ZM31.0795 144.591V143.591H30.592L30.2917 143.975L31.0795 144.591ZM41.017 144.591L41.8001 145.213L43.0884 143.591H41.017V144.591ZM28.642 160.17L27.859 159.548L27.4108 160.113L27.8042 160.716L28.642 160.17ZM41.2386 179.5V180.5H43.0839L42.0764 178.954L41.2386 179.5ZM31.1477 179.5L30.303 180.035L30.5975 180.5H31.1477V179.5ZM22.4545 165.778L23.2993 165.243L22.5453 164.053L21.6706 165.158L22.4545 165.778ZM19.0795 170.04L18.2956 169.419L18.0795 169.692V170.04H19.0795ZM19.0795 179.5V180.5H20.0795V179.5H19.0795ZM11.642 179.5V144.591H9.64205V179.5H11.642ZM10.642 145.591H19.0795V143.591H10.642V145.591ZM18.0795 144.591V159.352H20.0795V144.591H18.0795ZM19.0795 160.352H19.5398V158.352H19.0795V160.352ZM20.3276 159.968L31.8674 145.207L30.2917 143.975L18.7519 158.736L20.3276 159.968ZM31.0795 145.591H41.017V143.591H31.0795V145.591ZM40.234 143.969L27.859 159.548L29.4251 160.792L41.8001 145.213L40.234 143.969ZM27.8042 160.716L40.4008 180.046L42.0764 178.954L29.4798 159.624L27.8042 160.716ZM41.2386 178.5H31.1477V180.5H41.2386V178.5ZM31.9925 178.965L23.2993 165.243L21.6098 166.314L30.303 180.035L31.9925 178.965ZM21.6706 165.158L18.2956 169.419L19.8635 170.661L23.2385 166.399L21.6706 165.158ZM18.0795 170.04V179.5H20.0795V170.04H18.0795ZM19.0795 178.5H10.642V180.5H19.0795V178.5ZM44.3452 179.5H43.3452V180.5H44.3452V179.5ZM44.3452 144.591V143.591H43.3452V144.591H44.3452ZM52.7827 144.591H53.7827V143.591H52.7827V144.591ZM52.7827 158.602H51.7827V159.602H52.7827V158.602ZM66.5384 158.602V159.602H67.5384V158.602H66.5384ZM66.5384 144.591V143.591H65.5384V144.591H66.5384ZM74.9588 144.591H75.9588V143.591H74.9588V144.591ZM74.9588 179.5V180.5H75.9588V179.5H74.9588ZM66.5384 179.5H65.5384V180.5H66.5384V179.5ZM66.5384 165.472H67.5384V164.472H66.5384V165.472ZM52.7827 165.472V164.472H51.7827V165.472H52.7827ZM52.7827 179.5V180.5H53.7827V179.5H52.7827ZM45.3452 179.5V144.591H43.3452V179.5H45.3452ZM44.3452 145.591H52.7827V143.591H44.3452V145.591ZM51.7827 144.591V158.602H53.7827V144.591H51.7827ZM52.7827 159.602H66.5384V157.602H52.7827V159.602ZM67.5384 158.602V144.591H65.5384V158.602H67.5384ZM66.5384 145.591H74.9588V143.591H66.5384V145.591ZM73.9588 144.591V179.5H75.9588V144.591H73.9588ZM74.9588 178.5H66.5384V180.5H74.9588V178.5ZM67.5384 179.5V165.472H65.5384V179.5H67.5384ZM66.5384 164.472H52.7827V166.472H66.5384V164.472ZM51.7827 165.472V179.5H53.7827V165.472H51.7827ZM52.7827 178.5H44.3452V180.5H52.7827V178.5ZM110.984 171.812L110.109 171.328L110.109 171.328L110.984 171.812ZM104.984 177.898L104.503 177.021L104.501 177.022L104.984 177.898ZM88.0582 177.881L88.5446 177.007L88.5446 177.007L88.0582 177.881ZM82.0753 171.795L81.1987 172.277L81.2011 172.281L82.0753 171.795ZM82.0753 152.278L81.2002 151.794L81.1987 151.797L82.0753 152.278ZM88.0582 146.193L88.5415 147.069L88.5415 147.069L88.0582 146.193ZM104.984 146.193L104.501 147.069L104.503 147.07L104.984 146.193ZM110.984 152.278L110.109 152.762L110.109 152.762L110.984 152.278ZM103.604 156.284L102.677 156.66L102.679 156.666L103.604 156.284ZM100.842 152.722L100.282 153.55L100.286 153.552L100.842 152.722ZM92.2173 152.722L92.7738 153.552L92.7738 153.552L92.2173 152.722ZM89.4389 156.284L88.5146 155.902L88.5123 155.908L89.4389 156.284ZM89.4389 167.807L88.5123 168.183L88.5147 168.189L89.4389 167.807ZM92.2173 171.369L92.7738 170.538L92.7738 170.538L92.2173 171.369ZM100.842 171.369L100.286 170.538L100.282 170.541L100.842 171.369ZM103.604 167.807L102.679 167.425L102.677 167.431L103.604 167.807ZM112.2 162.045C112.2 165.76 111.486 168.84 110.109 171.328L111.859 172.297C113.437 169.444 114.2 166.013 114.2 162.045H112.2ZM110.109 171.328C108.718 173.844 106.85 175.732 104.503 177.021L105.466 178.774C108.164 177.291 110.296 175.122 111.859 172.297L110.109 171.328ZM104.501 177.022C102.151 178.32 99.5013 178.977 96.5298 178.977V180.977C99.8084 180.977 102.795 180.248 105.468 178.773L104.501 177.022ZM96.5298 178.977C93.5477 178.977 90.8939 178.314 88.5446 177.007L87.5719 178.754C90.2453 180.242 93.2392 180.977 96.5298 180.977V178.977ZM88.5446 177.007C86.2058 175.705 84.3417 173.816 82.9494 171.31L81.2011 172.281C82.7634 175.093 84.888 177.261 87.5719 178.754L88.5446 177.007ZM82.9519 171.314C81.5852 168.824 80.8764 165.749 80.8764 162.045H78.8764C78.8764 166.001 79.6336 169.426 81.1987 172.277L82.9519 171.314ZM80.8764 162.045C80.8764 158.33 81.5854 155.249 82.9519 152.76L81.1987 151.797C79.6334 154.649 78.8764 158.079 78.8764 162.045H80.8764ZM82.9503 152.762C84.3425 150.246 86.2056 148.358 88.5415 147.069L87.575 145.318C84.8881 146.801 82.7626 148.97 81.2003 151.794L82.9503 152.762ZM88.5415 147.069C90.8914 145.771 93.5463 145.114 96.5298 145.114V143.114C93.2406 143.114 90.2478 143.842 87.575 145.318L88.5415 147.069ZM96.5298 145.114C99.5013 145.114 102.151 145.771 104.501 147.069L105.468 145.318C102.795 143.842 99.8084 143.114 96.5298 143.114V145.114ZM104.503 147.07C106.85 148.359 108.718 150.247 110.109 152.762L111.859 151.794C110.296 148.969 108.164 146.8 105.466 145.317L104.503 147.07ZM110.109 152.762C111.486 155.251 112.2 158.331 112.2 162.045H114.2C114.2 158.078 113.437 154.647 111.859 151.794L110.109 152.762ZM105.575 162.045C105.575 159.684 105.24 157.625 104.528 155.902L102.679 156.666C103.263 158.079 103.575 159.862 103.575 162.045H105.575ZM104.53 155.908C103.832 154.186 102.796 152.826 101.399 151.891L100.286 153.552C101.298 154.23 102.103 155.245 102.677 156.66L104.53 155.908ZM101.402 151.893C100.018 150.957 98.377 150.511 96.5298 150.511V152.511C98.0463 152.511 99.2807 152.873 100.282 153.55L101.402 151.893ZM96.5298 150.511C94.6922 150.511 93.054 150.958 91.6608 151.891L92.7738 153.552C93.7897 152.872 95.0265 152.511 96.5298 152.511V150.511ZM91.6608 151.891C90.2655 152.825 89.2247 154.183 88.5147 155.902L90.3632 156.666C90.9486 155.249 91.76 154.231 92.7738 153.552L91.6608 151.891ZM88.5123 155.908C87.814 157.629 87.4844 159.685 87.4844 162.045H89.4844C89.4844 159.86 89.7912 158.076 90.3655 156.66L88.5123 155.908ZM87.4844 162.045C87.4844 164.405 87.814 166.462 88.5123 168.183L90.3655 167.431C89.7912 166.015 89.4844 164.231 89.4844 162.045H87.4844ZM88.5147 168.189C89.2247 169.908 90.2655 171.266 91.6608 172.2L92.7738 170.538C91.76 169.859 90.9486 168.842 90.3632 167.425L88.5147 168.189ZM91.6608 172.2C93.054 173.133 94.6922 173.58 96.5298 173.58V171.58C95.0265 171.58 93.7897 171.219 92.7738 170.538L91.6608 172.2ZM96.5298 173.58C98.377 173.58 100.018 173.134 101.402 172.198L100.282 170.541C99.2807 171.218 98.0463 171.58 96.5298 171.58V173.58ZM101.399 172.2C102.796 171.264 103.832 169.904 104.53 168.183L102.677 167.431C102.103 168.846 101.298 169.861 100.286 170.538L101.399 172.2ZM104.528 168.189C105.24 166.466 105.575 164.407 105.575 162.045H103.575C103.575 164.229 103.263 166.011 102.679 167.425L104.528 168.189ZM132.308 144.591V143.591H131.308V144.591H132.308ZM140.626 144.591H141.626V143.591H140.626V144.591ZM140.626 168.727L141.626 168.732V168.727H140.626ZM139.007 174.659L139.851 175.195L139.853 175.193L139.007 174.659ZM134.575 178.58L134.132 177.683L134.13 177.684L134.575 178.58ZM122.115 178.835L121.72 179.754L121.723 179.755L122.115 178.835ZM117.871 175.29L117.033 175.836L117.036 175.84L117.871 175.29ZM116.32 169.136V168.136H115.324L115.32 169.132L116.32 169.136ZM124.723 169.136L125.722 169.098L125.686 168.136H124.723V169.136ZM125.234 171.438L124.334 171.872L124.338 171.882L124.343 171.891L125.234 171.438ZM126.547 172.852L127.043 171.984L127.043 171.984L126.547 172.852ZM130.587 172.818L131.109 173.671L131.115 173.667L131.121 173.663L130.587 172.818ZM131.848 171.267L130.93 170.869L130.925 170.882L131.848 171.267ZM132.308 168.727L133.308 168.739V168.727H132.308ZM132.308 145.591H140.626V143.591H132.308V145.591ZM139.626 144.591V168.727H141.626V144.591H139.626ZM139.626 168.722C139.616 170.821 139.117 172.61 138.161 174.126L139.853 175.193C141.033 173.321 141.614 171.156 141.626 168.732L139.626 168.722ZM138.163 174.123C137.199 175.641 135.864 176.828 134.132 177.683L135.018 179.476C137.059 178.468 138.679 177.04 139.851 175.195L138.163 174.123ZM134.13 177.684C132.416 178.536 130.403 178.977 128.064 178.977V180.977C130.657 180.977 132.984 180.487 135.02 179.475L134.13 177.684ZM128.064 178.977C126 178.977 124.153 178.618 122.508 177.915L121.723 179.755C123.645 180.576 125.764 180.977 128.064 180.977V178.977ZM122.51 177.916C120.916 177.232 119.654 176.177 118.706 174.739L117.036 175.84C118.201 177.607 119.769 178.916 121.72 179.754L122.51 177.916ZM118.708 174.743C117.798 173.348 117.309 171.504 117.32 169.141L115.32 169.132C115.308 171.768 115.853 174.027 117.033 175.836L118.708 174.743ZM116.32 170.136H124.723V168.136H116.32V170.136ZM123.724 169.174C123.762 170.174 123.953 171.083 124.334 171.872L126.135 171.003C125.902 170.52 125.753 169.895 125.722 169.098L123.724 169.174ZM124.343 171.891C124.741 172.673 125.309 173.297 126.051 173.721L127.043 171.984C126.671 171.772 126.364 171.452 126.126 170.984L124.343 171.891ZM126.051 173.721C126.787 174.141 127.63 174.33 128.541 174.33V172.33C127.907 172.33 127.421 172.2 127.043 171.984L126.051 173.721ZM128.541 174.33C129.489 174.33 130.362 174.129 131.109 173.671L130.064 171.965C129.698 172.19 129.207 172.33 128.541 172.33V174.33ZM131.121 173.663C131.873 173.188 132.418 172.499 132.771 171.652L130.925 170.882C130.71 171.398 130.414 171.744 130.052 171.973L131.121 173.663ZM132.766 171.665C133.129 170.825 133.296 169.838 133.308 168.739L131.308 168.716C131.298 169.64 131.158 170.345 130.93 170.869L132.766 171.665ZM133.308 168.727V144.591H131.308V168.727H133.308ZM176.656 171.812L175.781 171.328L175.781 171.328L176.656 171.812ZM170.656 177.898L170.175 177.021L170.173 177.022L170.656 177.898ZM153.73 177.881L154.216 177.007L154.216 177.007L153.73 177.881ZM147.747 171.795L146.871 172.277L146.873 172.281L147.747 171.795ZM147.747 152.278L146.872 151.794L146.871 151.797L147.747 152.278ZM153.73 146.193L154.213 147.069L154.213 147.069L153.73 146.193ZM170.656 146.193L170.173 147.069L170.175 147.07L170.656 146.193ZM176.656 152.278L175.781 152.762L175.781 152.762L176.656 152.278ZM169.276 156.284L168.349 156.66L168.351 156.666L169.276 156.284ZM166.514 152.722L165.954 153.55L165.958 153.552L166.514 152.722ZM157.889 152.722L158.446 153.552L158.446 153.552L157.889 152.722ZM155.111 156.284L154.187 155.902L154.184 155.908L155.111 156.284ZM155.111 167.807L154.184 168.183L154.187 168.189L155.111 167.807ZM157.889 171.369L158.446 170.538L158.446 170.538L157.889 171.369ZM166.514 171.369L165.958 170.538L165.954 170.541L166.514 171.369ZM169.276 167.807L168.351 167.425L168.349 167.431L169.276 167.807ZM177.872 162.045C177.872 165.76 177.158 168.84 175.781 171.328L177.531 172.297C179.109 169.444 179.872 166.013 179.872 162.045H177.872ZM175.781 171.328C174.39 173.844 172.522 175.732 170.175 177.021L171.138 178.774C173.836 177.291 175.968 175.122 177.531 172.297L175.781 171.328ZM170.173 177.022C167.823 178.32 165.173 178.977 162.202 178.977V180.977C165.48 180.977 168.467 180.248 171.14 178.773L170.173 177.022ZM162.202 178.977C159.22 178.977 156.566 178.314 154.216 177.007L153.244 178.754C155.917 180.242 158.911 180.977 162.202 180.977V178.977ZM154.216 177.007C151.878 175.705 150.014 173.816 148.621 171.31L146.873 172.281C148.435 175.093 150.56 177.261 153.244 178.754L154.216 177.007ZM148.624 171.314C147.257 168.824 146.548 165.749 146.548 162.045H144.548C144.548 166.001 145.305 169.426 146.871 172.277L148.624 171.314ZM146.548 162.045C146.548 158.33 147.257 155.249 148.624 152.76L146.871 151.797C145.305 154.649 144.548 158.079 144.548 162.045H146.548ZM148.622 152.762C150.014 150.246 151.878 148.358 154.213 147.069L153.247 145.318C150.56 146.801 148.434 148.97 146.872 151.794L148.622 152.762ZM154.213 147.069C156.563 145.771 159.218 145.114 162.202 145.114V143.114C158.912 143.114 155.92 143.842 153.247 145.318L154.213 147.069ZM162.202 145.114C165.173 145.114 167.823 145.771 170.173 147.069L171.14 145.318C168.467 143.842 165.48 143.114 162.202 143.114V145.114ZM170.175 147.07C172.522 148.359 174.39 150.247 175.781 152.762L177.531 151.794C175.968 148.969 173.836 146.8 171.138 145.317L170.175 147.07ZM175.781 152.762C177.158 155.251 177.872 158.331 177.872 162.045H179.872C179.872 158.078 179.109 154.647 177.531 151.794L175.781 152.762ZM171.247 162.045C171.247 159.684 170.911 157.625 170.2 155.902L168.351 156.666C168.935 158.079 169.247 159.862 169.247 162.045H171.247ZM170.202 155.908C169.504 154.186 168.468 152.826 167.071 151.891L165.958 153.552C166.97 154.23 167.775 155.245 168.349 156.66L170.202 155.908ZM167.074 151.893C165.689 150.957 164.049 150.511 162.202 150.511V152.511C163.718 152.511 164.953 152.873 165.954 153.55L167.074 151.893ZM162.202 150.511C160.364 150.511 158.726 150.958 157.333 151.891L158.446 153.552C159.462 152.872 160.698 152.511 162.202 152.511V150.511ZM157.333 151.891C155.937 152.825 154.897 154.183 154.187 155.902L156.035 156.666C156.62 155.249 157.432 154.231 158.446 153.552L157.333 151.891ZM154.184 155.908C153.486 157.629 153.156 159.685 153.156 162.045H155.156C155.156 159.86 155.463 158.076 156.037 156.66L154.184 155.908ZM153.156 162.045C153.156 164.405 153.486 166.462 154.184 168.183L156.037 167.431C155.463 166.015 155.156 164.231 155.156 162.045H153.156ZM154.187 168.189C154.897 169.908 155.937 171.266 157.333 172.2L158.446 170.538C157.432 169.859 156.62 168.842 156.035 167.425L154.187 168.189ZM157.333 172.2C158.726 173.133 160.364 173.58 162.202 173.58V171.58C160.698 171.58 159.462 171.219 158.446 170.538L157.333 172.2ZM162.202 173.58C164.049 173.58 165.689 173.134 167.074 172.198L165.954 170.541C164.953 171.218 163.718 171.58 162.202 171.58V173.58ZM167.071 172.2C168.468 171.264 169.504 169.904 170.202 168.183L168.349 167.431C167.775 168.846 166.97 169.861 165.958 170.538L167.071 172.2ZM170.2 168.189C170.911 166.466 171.247 164.407 171.247 162.045H169.247C169.247 164.229 168.935 166.011 168.351 167.425L170.2 168.189Z" fill="white"/>
<path d="M0.321023 214.5V197.045H4.53977V204.426H4.76989L10.5398 197.045H15.5085L9.32102 204.835L15.6193 214.5H10.5739L6.22727 207.639L4.53977 209.77V214.5H0.321023ZM17.9929 214.5V201.409H22.1605V214.5H17.9929ZM20.081 199.884C19.4957 199.884 18.9929 199.69 18.5724 199.304C18.152 198.912 17.9418 198.44 17.9418 197.889C17.9418 197.344 18.152 196.878 18.5724 196.491C18.9929 196.099 19.4957 195.903 20.081 195.903C20.6719 195.903 21.1747 196.099 21.5895 196.491C22.0099 196.878 22.2202 197.344 22.2202 197.889C22.2202 198.44 22.0099 198.912 21.5895 199.304C21.1747 199.69 20.6719 199.884 20.081 199.884ZM30.924 214.747C29.5433 214.747 28.3587 214.463 27.37 213.895C26.3871 213.327 25.6314 212.537 25.103 211.526C24.5746 210.509 24.3104 209.332 24.3104 207.997C24.3104 206.656 24.5746 205.48 25.103 204.469C25.6371 203.452 26.3956 202.659 27.3786 202.091C28.3672 201.523 29.5462 201.239 30.9155 201.239C32.1257 201.239 33.1797 201.457 34.0774 201.895C34.9808 202.332 35.6854 202.952 36.1911 203.753C36.7024 204.548 36.9723 205.483 37.0007 206.557H33.1058C33.0263 205.886 32.799 205.361 32.424 204.98C32.0547 204.599 31.5717 204.409 30.9751 204.409C30.4922 204.409 30.0689 204.545 29.7053 204.818C29.3416 205.085 29.0575 205.483 28.853 206.011C28.6541 206.534 28.5547 207.182 28.5547 207.955C28.5547 208.727 28.6541 209.381 28.853 209.915C29.0575 210.443 29.3416 210.844 29.7053 211.116C30.0689 211.384 30.4922 211.517 30.9751 211.517C31.3615 211.517 31.7024 211.435 31.9979 211.27C32.299 211.105 32.5462 210.864 32.7393 210.545C32.9325 210.222 33.0547 209.83 33.1058 209.369H37.0007C36.9609 210.449 36.6911 211.392 36.1911 212.199C35.6967 213.006 35.0007 213.634 34.103 214.082C33.2109 214.526 32.1513 214.747 30.924 214.747ZM43.3011 207.034V214.5H39.1335V197.045H43.1648V203.812H43.3097C43.6051 203.006 44.0881 202.375 44.7585 201.92C45.4347 201.466 46.2614 201.239 47.2386 201.239C48.1591 201.239 48.9602 201.443 49.642 201.852C50.3239 202.256 50.8523 202.827 51.2273 203.565C51.608 204.304 51.7955 205.168 51.7898 206.156V214.5H47.6222V206.974C47.6278 206.247 47.446 205.679 47.0767 205.27C46.7074 204.861 46.1875 204.656 45.517 204.656C45.0795 204.656 44.6932 204.753 44.358 204.946C44.0284 205.134 43.7699 205.403 43.5824 205.756C43.4006 206.108 43.3068 206.534 43.3011 207.034ZM62.8374 208.849V201.409H66.9964V214.5H63.0249V212.062H62.8885C62.5987 212.864 62.1044 213.5 61.4055 213.972C60.7124 214.437 59.8743 214.67 58.8913 214.67C57.9993 214.67 57.2152 214.466 56.5391 214.057C55.8629 213.648 55.3374 213.077 54.9624 212.344C54.5874 211.605 54.397 210.741 54.3913 209.753V201.409H58.5589V208.935C58.5646 209.645 58.7521 210.205 59.1214 210.614C59.4908 211.023 59.9936 211.227 60.63 211.227C61.0447 211.227 61.4169 211.136 61.7464 210.955C62.0817 210.767 62.3459 210.497 62.5391 210.145C62.7379 209.787 62.8374 209.355 62.8374 208.849ZM74.8054 214.5V197.045H82.0156C83.3224 197.045 84.4503 197.301 85.3991 197.812C86.3537 198.318 87.0895 199.026 87.6065 199.935C88.1236 200.838 88.3821 201.889 88.3821 203.088C88.3821 204.293 88.1179 205.347 87.5895 206.25C87.0668 207.148 86.3196 207.844 85.348 208.338C84.3764 208.832 83.223 209.08 81.8878 209.08H77.4389V205.756H81.1037C81.7401 205.756 82.2713 205.645 82.6974 205.423C83.1293 205.202 83.456 204.892 83.6776 204.494C83.8991 204.091 84.0099 203.622 84.0099 203.088C84.0099 202.548 83.8991 202.082 83.6776 201.69C83.456 201.293 83.1293 200.986 82.6974 200.77C82.2656 200.554 81.7344 200.446 81.1037 200.446H79.0241V214.5H74.8054ZM93.6832 214.722C92.848 214.722 92.1065 214.582 91.4588 214.304C90.8168 214.02 90.3082 213.594 89.9332 213.026C89.5639 212.452 89.3793 211.733 89.3793 210.869C89.3793 210.142 89.5071 209.528 89.7628 209.028C90.0185 208.528 90.3707 208.122 90.8196 207.81C91.2685 207.497 91.7855 207.261 92.3707 207.102C92.956 206.937 93.581 206.827 94.2457 206.77C94.9901 206.702 95.5895 206.631 96.044 206.557C96.4986 206.477 96.8281 206.366 97.0327 206.224C97.2429 206.077 97.348 205.869 97.348 205.602V205.56C97.348 205.122 97.1974 204.784 96.8963 204.545C96.5952 204.307 96.1889 204.188 95.6776 204.188C95.1264 204.188 94.6832 204.307 94.348 204.545C94.0128 204.784 93.7997 205.114 93.7088 205.534L89.8651 205.398C89.9787 204.602 90.2713 203.892 90.7429 203.267C91.2202 202.636 91.8736 202.142 92.7031 201.784C93.5384 201.42 94.5412 201.239 95.7116 201.239C96.5469 201.239 97.3168 201.338 98.0213 201.537C98.7259 201.73 99.3395 202.014 99.8622 202.389C100.385 202.759 100.788 203.213 101.072 203.753C101.362 204.293 101.507 204.909 101.507 205.602V214.5H97.5866V212.676H97.4844C97.2514 213.119 96.9531 213.494 96.5895 213.801C96.2315 214.108 95.8082 214.338 95.3196 214.491C94.8366 214.645 94.2912 214.722 93.6832 214.722ZM94.9702 211.994C95.419 211.994 95.8224 211.903 96.1804 211.722C96.544 211.54 96.8338 211.29 97.0497 210.972C97.2656 210.648 97.3736 210.273 97.3736 209.847V208.602C97.2543 208.665 97.1094 208.722 96.9389 208.773C96.7741 208.824 96.5923 208.872 96.3935 208.918C96.1946 208.963 95.9901 209.003 95.7798 209.037C95.5696 209.071 95.3679 209.102 95.1747 209.131C94.7827 209.193 94.4474 209.29 94.169 209.42C93.8963 209.551 93.6861 209.722 93.5384 209.932C93.3963 210.136 93.3253 210.381 93.3253 210.665C93.3253 211.097 93.4787 211.426 93.7855 211.653C94.098 211.881 94.4929 211.994 94.9702 211.994ZM104.055 214.5V201.409H108.223V214.5H104.055ZM106.143 199.884C105.558 199.884 105.055 199.69 104.635 199.304C104.214 198.912 104.004 198.44 104.004 197.889C104.004 197.344 104.214 196.878 104.635 196.491C105.055 196.099 105.558 195.903 106.143 195.903C106.734 195.903 107.237 196.099 107.652 196.491C108.072 196.878 108.283 197.344 108.283 197.889C108.283 198.44 108.072 198.912 107.652 199.304C107.237 199.69 106.734 199.884 106.143 199.884ZM115.043 197.045V214.5H110.876V197.045H115.043ZM123.815 214.747C122.446 214.747 121.264 214.477 120.27 213.938C119.281 213.392 118.52 212.616 117.986 211.611C117.457 210.599 117.193 209.398 117.193 208.006C117.193 206.653 117.46 205.472 117.994 204.46C118.528 203.443 119.281 202.653 120.253 202.091C121.224 201.523 122.369 201.239 123.688 201.239C124.619 201.239 125.472 201.384 126.244 201.673C127.017 201.963 127.685 202.392 128.247 202.96C128.81 203.528 129.247 204.23 129.56 205.065C129.872 205.895 130.028 206.847 130.028 207.92V208.96H118.651V206.54H126.151C126.145 206.097 126.04 205.702 125.835 205.355C125.631 205.009 125.349 204.739 124.991 204.545C124.639 204.347 124.233 204.247 123.773 204.247C123.307 204.247 122.889 204.352 122.52 204.562C122.151 204.767 121.858 205.048 121.642 205.406C121.426 205.759 121.313 206.159 121.301 206.608V209.071C121.301 209.605 121.406 210.074 121.616 210.477C121.827 210.875 122.125 211.185 122.511 211.406C122.898 211.628 123.358 211.739 123.892 211.739C124.261 211.739 124.597 211.687 124.898 211.585C125.199 211.483 125.457 211.332 125.673 211.134C125.889 210.935 126.051 210.69 126.159 210.401L129.986 210.511C129.827 211.369 129.477 212.116 128.938 212.753C128.403 213.384 127.702 213.875 126.832 214.227C125.963 214.574 124.957 214.747 123.815 214.747ZM132.157 214.5V197.045H139.435C140.742 197.045 141.836 197.23 142.717 197.599C143.603 197.969 144.268 198.486 144.711 199.151C145.16 199.815 145.384 200.585 145.384 201.46C145.384 202.125 145.245 202.719 144.967 203.241C144.688 203.759 144.305 204.187 143.816 204.528C143.327 204.869 142.762 205.108 142.12 205.244V205.415C142.825 205.449 143.475 205.639 144.072 205.986C144.674 206.332 145.157 206.815 145.521 207.435C145.884 208.048 146.066 208.776 146.066 209.616C146.066 210.554 145.827 211.392 145.35 212.131C144.873 212.864 144.183 213.443 143.279 213.869C142.376 214.29 141.279 214.5 139.989 214.5H132.157ZM136.376 211.099H138.984C139.898 211.099 140.572 210.926 141.004 210.58C141.441 210.233 141.66 209.75 141.66 209.131C141.66 208.682 141.555 208.295 141.344 207.972C141.134 207.642 140.836 207.389 140.45 207.213C140.063 207.031 139.6 206.94 139.06 206.94H136.376V211.099ZM136.376 204.222H138.711C139.171 204.222 139.58 204.145 139.938 203.991C140.296 203.838 140.575 203.616 140.773 203.327C140.978 203.037 141.08 202.687 141.08 202.278C141.08 201.693 140.873 201.233 140.458 200.898C140.043 200.562 139.484 200.395 138.779 200.395H136.376V204.222ZM154.205 214.747C152.83 214.747 151.648 214.466 150.66 213.903C149.677 213.335 148.918 212.545 148.384 211.534C147.856 210.517 147.592 209.338 147.592 207.997C147.592 206.651 147.856 205.472 148.384 204.46C148.918 203.443 149.677 202.653 150.66 202.091C151.648 201.523 152.83 201.239 154.205 201.239C155.58 201.239 156.759 201.523 157.742 202.091C158.731 202.653 159.489 203.443 160.018 204.46C160.552 205.472 160.819 206.651 160.819 207.997C160.819 209.338 160.552 210.517 160.018 211.534C159.489 212.545 158.731 213.335 157.742 213.903C156.759 214.466 155.58 214.747 154.205 214.747ZM154.231 211.602C154.731 211.602 155.154 211.449 155.501 211.142C155.847 210.835 156.112 210.409 156.293 209.864C156.481 209.318 156.575 208.687 156.575 207.972C156.575 207.244 156.481 206.608 156.293 206.062C156.112 205.517 155.847 205.091 155.501 204.784C155.154 204.477 154.731 204.324 154.231 204.324C153.714 204.324 153.276 204.477 152.918 204.784C152.566 205.091 152.296 205.517 152.109 206.062C151.927 206.608 151.836 207.244 151.836 207.972C151.836 208.687 151.927 209.318 152.109 209.864C152.296 210.409 152.566 210.835 152.918 211.142C153.276 211.449 153.714 211.602 154.231 211.602ZM162.954 214.5V201.409H167.121V214.5H162.954ZM165.042 199.884C164.457 199.884 163.954 199.69 163.533 199.304C163.113 198.912 162.903 198.44 162.903 197.889C162.903 197.344 163.113 196.878 163.533 196.491C163.954 196.099 164.457 195.903 165.042 195.903C165.633 195.903 166.136 196.099 166.55 196.491C166.971 196.878 167.181 197.344 167.181 197.889C167.181 198.44 166.971 198.912 166.55 199.304C166.136 199.69 165.633 199.884 165.042 199.884ZM173.942 197.045V214.5H169.774V197.045H173.942ZM182.705 214.747C181.33 214.747 180.148 214.466 179.16 213.903C178.177 213.335 177.418 212.545 176.884 211.534C176.356 210.517 176.092 209.338 176.092 207.997C176.092 206.651 176.356 205.472 176.884 204.46C177.418 203.443 178.177 202.653 179.16 202.091C180.148 201.523 181.33 201.239 182.705 201.239C184.08 201.239 185.259 201.523 186.242 202.091C187.231 202.653 187.989 203.443 188.518 204.46C189.052 205.472 189.319 206.651 189.319 207.997C189.319 209.338 189.052 210.517 188.518 211.534C187.989 212.545 187.231 213.335 186.242 213.903C185.259 214.466 184.08 214.747 182.705 214.747ZM182.731 211.602C183.231 211.602 183.654 211.449 184.001 211.142C184.347 210.835 184.612 210.409 184.793 209.864C184.981 209.318 185.075 208.687 185.075 207.972C185.075 207.244 184.981 206.608 184.793 206.062C184.612 205.517 184.347 205.091 184.001 204.784C183.654 204.477 183.231 204.324 182.731 204.324C182.214 204.324 181.776 204.477 181.418 204.784C181.066 205.091 180.796 205.517 180.609 206.062C180.427 206.608 180.336 207.244 180.336 207.972C180.336 208.687 180.427 209.318 180.609 209.864C180.796 210.409 181.066 210.835 181.418 211.142C181.776 211.449 182.214 211.602 182.731 211.602Z" fill="#F2F2F2"/>
</svg>
