<svg width="158" height="137" viewBox="0 0 158 137" fill="none" xmlns="http://www.w3.org/2000/svg">
<ellipse cx="73" cy="117" rx="66.5" ry="19.5" fill="#E2F8FF"/>
<path d="M41.5 68.5L11 88.5L9 90.5L8 89.5L8.5 87V85V83.5L8 82.5L7 81.5L5.5 81L4 80.5L1.5 80L1 78L4.5 76.5L89 27.5L128 65.5L127 67L126 68.5L125 70.5L124 72L122.5 74L121.5 75.5L119.5 78L117.5 80L115 82L112.5 83.5L109.5 85.5L106.5 87.5L104.5 88.5L102.5 89.5L99.5 90.5L96.5 91.5H94.5H92.5L90.5 92.5H78.5L73.5 91.5L69.5 90.5L67.5 89.5L64.5 88.5L60.5 86.5L58.5 85.5L55.5 83.5L52.5 81.5L50.5 79.5L49.5 78.5L48.5 77.5L46.5 75.5L44.5 73.5L42.5 70.5L41.5 68.5Z" fill="#FACC15" stroke="black"/>
<path d="M138.5 83.5L137.5 84L135.5 83.5L132.5 82L129.5 80L126 77.5L122.5 74.5L128 66L89 27.5L80.5 32L79 30.5L77.5 29L75.5 27L74 25.5L73.5 24.5L72.5 23L72 22V20.5L72.5 19L75 16.5L79 13L82.5 10.5L85.5 9L90 7.5L93.5 6.5L96.5 6L99.5 5.5H102.5H105H108L111.5 6L114 6.5L117 7.5H118.5L120.5 7L122.5 6L124 5L125 4L126.5 2.5L127.5 1.5L128 1L156.5 29L155 30.5L153.5 32L152 33.5L151 35L150 36V38.5L151 41.5L151.5 43.5L152 45.5L153 51V53.5V56.5L152.5 59.5L152 62L151 65L150 67L148.5 70L147 73L145.5 75.5L144 77.5L142.5 79.5L140.5 81.5L138.5 83.5Z" fill="#D2D1D1"/>
<path d="M128 66L130 68L132 70L133.5 72L135.5 74.5L136.5 76L137.5 77.5L138.5 80V82V83.5M128 66L89 27.5M128 66L122.5 74.5L126 77.5L129.5 80L132.5 82L135.5 83.5L137.5 84L138.5 83.5M138.5 83.5L140.5 81.5L142.5 79.5L144 77.5L145.5 75.5L147 73L148.5 70L150 67L151 65L152 62L152.5 59.5L153 56.5V53.5V51L152 45.5L151.5 43.5L151 41.5L150 38.5V36M89 27.5L87.5 26L86.5 25L85.5 24L84 23L82.5 22L81 21L79 20L76.5 19L74.5 18.5H73.5L72.5 19M89 27.5L80.5 32L79 30.5L77.5 29L75.5 27L74 25.5L73.5 24.5L72.5 23L72 22V20.5L72.5 19M72.5 19L75 16.5L79 13L82.5 10.5L85.5 9L90 7.5L93.5 6.5L96.5 6L99.5 5.5H102.5H105H108L111.5 6L114 6.5L117 7.5H118.5L120.5 7L122.5 6L124 5L125 4L126.5 2.5L127.5 1.5L128 1L156.5 29L155 30.5L153.5 32L152 33.5L151 35L150 36M150 36L131 17" stroke="black"/>
<path d="M91 44.5L52.5 72L54.5 73L56 73.5L58.5 74H60.5H63H65H69.5H73.5H77L81 73.5L84 73L87 72.5L89.5 72L92 71L95 70L97 69L99.5 68L102 66.5L103.5 65.5L105 64L106.5 62.5L107 60V58V56L106.5 53.5L106 51.5L105 49.5L103.5 47.5L102 46L100 45L97 44.5H95H93H91Z" fill="#FF0000"/>
<path d="M77 74L81 73.5L84 73L87 72.5L89.5 72L92 71L95 70L97 69L99.5 68L102 66.5L103.5 65.5L105 64L106.5 62.5L107 60V58V56L106.5 53.5L106 51.5L105 49.5L103.5 47.5L102 46L100 45L97 44.5H95H93H91L52.5 72L54.5 73L56 73.5L58.5 74H60.5M77 74H73.5H69.5H65H63H60.5M77 74L81 72L84 70L87 68L89.5 65.5L92 63.5L94 61L96.5 58.5L98 56M60.5 74L64 72.5L67.5 71L71.5 69L75.5 66.5L79.5 64L82.5 61.5L85.5 58.5L87.5 56L89 54" stroke="black"/>
<path d="M62 87.5L40.5 99L35 114.5M35 114.5L31.5 124M35 114.5L38.5 122H40.5M35 114.5L42 117.5H44M35 114.5L30 110.5V109" stroke="black"/>
<path d="M81.5 93L89 111.5L106 110M106 110H115M106 110L110.5 103M106 110L104 100M106 110L103 117" stroke="black"/>
</svg>
